<?xml version="1.0" standalone="no"?><svg xmlns="http://www.w3.org/2000/svg" viewBox="0 0 1440 320"><path fill="#0099ff" fill-opacity="1" d="M0,160L14.1,181.3C28.2,203,56,245,85,229.3C112.9,213,141,139,169,122.7C197.6,107,226,149,254,176C282.4,203,311,213,339,192C367.1,171,395,117,424,122.7C451.8,128,480,192,508,234.7C536.5,277,565,299,593,261.3C621.2,224,649,128,678,74.7C705.9,21,734,11,762,42.7C790.6,75,819,149,847,176C875.3,203,904,181,932,186.7C960,192,988,224,1016,218.7C1044.7,213,1073,171,1101,154.7C1129.4,139,1158,149,1186,160C1214.1,171,1242,181,1271,160C1298.8,139,1327,85,1355,58.7C1383.5,32,1412,32,1426,32L1440,32L1440,320L1425.9,320C1411.8,320,1384,320,1355,320C1327.1,320,1299,320,1271,320C1242.4,320,1214,320,1186,320C1157.6,320,1129,320,1101,320C1072.9,320,1045,320,1016,320C988.2,320,960,320,932,320C903.5,320,875,320,847,320C818.8,320,791,320,762,320C734.1,320,706,320,678,320C649.4,320,621,320,593,320C564.7,320,536,320,508,320C480,320,452,320,424,320C395.3,320,367,320,339,320C310.6,320,282,320,254,320C225.9,320,198,320,169,320C141.2,320,113,320,85,320C56.5,320,28,320,14,320L0,320Z"></path></svg>